Coordinates
nRows=131
nColumns=2
inDegrees=yes
endheader
time	ankle_angle_r	
2.57661	 -0.383930	
2.64819	 -0.412730	
2.71976	 -0.450044	
2.79133	 -0.483714	
2.8629	 -0.461366	
2.93448	 -0.463005	
3.00605	 -0.496938	
3.07762	 -0.473494	
3.14919	 -0.457411	
3.22077	 -0.498945	
3.29234	 -0.509335	
3.36391	 -0.479138	
3.43548	 -0.492278	
3.50706	 -0.531177	
3.57863	 -0.535260	
3.6502	 -0.508535	
3.72177	 -0.490417	
3.79335	 -0.471526	
3.86492	 -0.434140	
3.93649	 -0.452456	
4.00806	 -0.493458	
4.07964	 -0.459046	
4.15121	 -0.411656	
4.22278	 -0.414094	
4.29435	 -0.447485	
4.36593	 -0.469025	
4.4375	 -0.458220	
4.50907	 -0.447202	
4.58065	 -0.453602	
4.65222	 -0.447079	
4.72379	 -0.432718	
4.79536	 -0.454436	
4.86694	 -0.463767	
4.93851	 -0.445126	
5.01008	 -0.459962	
5.08165	 -0.508391	
5.15323	 -0.530108	
5.2248	 -0.477827	
5.29637	 -0.448520	
5.36794	 -0.486630	
5.43952	 -0.502285	
5.51109	 -0.482203	
5.58266	 -0.454588	
5.65423	 -0.434738	
5.72581	 -0.413573	
5.79738	 -0.400826	
5.86895	 -0.422412	
5.94052	 -0.457060	
6.0121	 -0.445558	
6.08367	 -0.405294	
6.15524	 -0.423170	
6.22681	 -0.432885	
6.29839	 -0.396359	
6.36996	 -0.410462	
6.44153	 -0.455282	
6.5131	 -0.460729	
6.58468	 -0.447008	
6.65625	 -0.470523	
6.72782	 -0.499517	
6.7994	 -0.476700	
6.87097	 -0.456633	
6.94254	 -0.474605	
7.01411	 -0.455744	
7.08569	 -0.393877	
7.15726	 -0.393467	
7.22883	 -0.437263	
7.3004	 -0.432351	
7.37198	 -0.391016	
7.44355	 -0.386649	
7.51512	 -0.434254	
7.58669	 -0.435392	
7.65827	 -0.396495	
7.72984	 -0.408089	
7.80141	 -0.427049	
7.87298	 -0.416711	
7.94456	 -0.425208	
8.01613	 -0.465292	
8.0877	 -0.473753	
8.15927	 -0.451958	
8.23085	 -0.482781	
8.30242	 -0.525448	
8.37399	 -0.479959	
8.44556	 -0.431511	
8.51714	 -0.474863	
8.58871	 -0.491103	
8.66028	 -0.435515	
8.73185	 -0.407670	
8.80343	 -0.430128	
8.875	 -0.443600	
8.94657	 -0.404593	
9.01815	 -0.394890	
9.08972	 -0.444977	
9.16129	 -0.451882	
9.23286	 -0.416826	
9.30444	 -0.427468	
9.37601	 -0.471859	
9.44758	 -0.461401	
9.51915	 -0.423488	
9.59073	 -0.432758	
9.6623	 -0.456813	
9.73387	 -0.432975	
9.80544	 -0.403870	
9.87702	 -0.444892	
9.94859	 -0.470447	
10.0202	 -0.426514	
10.0917	 -0.402991	
10.1633	 -0.443906	
10.2349	 -0.483633	
10.3065	 -0.459502	
10.378	 -0.449976	
10.4496	 -0.500757	
10.5212	 -0.515558	
10.5927	 -0.464412	
10.6643	 -0.458405	
10.7359	 -0.511729	
10.8075	 -0.495222	
10.879	 -0.418253	
10.9506	 -0.388623	
11.0222	 -0.411347	
11.0937	 -0.409093	
11.1653	 -0.403928	
11.2369	 -0.459657	
11.3085	 -0.472200	
11.38	 -0.422571	
11.4516	 -0.428739	
11.5232	 -0.487742	
11.5948	 -0.523980	
11.6663	 -0.510917	
11.7379	 -0.505437	
11.8095	 -0.517962	
11.881	 -0.488425	
